<svg id="Layer_1" data-name="Layer 1" xmlns="http://www.w3.org/2000/svg" viewBox="0 0 557.59 110.63"><defs><style>.cls-1,.cls-2{fill:none;stroke:#104e5a;stroke-miterlimit:10;}.cls-1{stroke-linecap:round;stroke-width:18px;}.cls-2{stroke-width:10px;}.cls-3{fill:#104e5a;}</style></defs><title>PACKS logo green</title><line class="cls-1" x1="134.17" y1="11.49" x2="192.47" y2="101.63"/><line class="cls-1" x1="159.83" y1="11.2" x2="101.58" y2="101.63"/><path class="cls-2" d="M134.72,108.94V98.67A12.59,12.59,0,0,1,147.3,86.11h0a12.59,12.59,0,0,1,12.55,12.56v10.27" transform="translate(0 0)"/><path class="cls-3" d="M41.3,3.42C62.44,3.42,77.1,17.78,77.1,39S62,74.57,40.49,74.57H19v32.22a2.91,2.91,0,0,1-2.91,2.91H0V3.42ZM19,59.25H36.22C49.85,59.25,57.8,51.88,57.8,39S49.92,19,36.3,19H19Z" transform="translate(0 0)"/><path class="cls-3" d="M227.15,54.87C227.15,21,246.37,0,276.57,0,301.24,0,320,15.39,322.38,38.22H306.3a3.34,3.34,0,0,1-3.2-2.45c-3.31-11.94-13.63-19.64-26.54-19.64-18.27,0-30,15-30,38.74s11.64,38.81,30.05,38.81c14.07,0,24.16-7.58,27.11-20.4h18.63C319,96,301.66,109.81,276.54,109.81,246.22,109.81,227.15,88.94,227.15,54.87Z" transform="translate(0 0)"/><path class="cls-3" d="M359.37,108.05V1.76h17.54a1.46,1.46,0,0,1,1.46,1.46h0V51.48H379L421.46,1.76h19.61a1,1,0,0,1,1.08.92,1,1,0,0,1-.3.79L402.38,48.94l44.12,59.15H423.38L388.83,61.64,378.37,73.87v34.18Z" transform="translate(0 0)"/><path class="cls-3" d="M490.7,78.36A2.16,2.16,0,0,1,492.79,80c2.19,8.81,11.42,14,23.92,14,12.82,0,21.73-6.33,21.73-15.17,0-7.66-5.31-12.37-19.15-15.25l-11.42-2.35c-21.28-4.34-31.23-14.34-31.23-29.91C476.64,12.66,493.07,0,516.12,0c23.5,0,39,12.81,39.48,31.81H539a1.81,1.81,0,0,1-1.81-1.47c-1.55-9.13-9.7-14.58-21.25-14.58-11.78,0-20.18,5.6-20.18,14.51,0,7.22,5.3,11.86,18.56,14.65l11.49,2.36c22.39,4.64,31.75,13.63,31.75,29.39,0,20.33-16,33.14-41.54,33.14-24.6,0-40.88-12-41.76-31.45Z" transform="translate(0 0)"/></svg>